<svg width="5%" height="5%" viewBox="0 0 4128 1028" xmlns="http://www.w3.org/2000/svg" xml:space="preserve" fill-rule="evenodd" clip-rule="evenodd" stroke-linejoin="round" stroke-miterlimit="2"><path d="M81.113 878.5c0 35.346 28.654 64 64 64h731.999c35.346 0 64-28.654 64-64v-729c0-35.346-28.654-64-64-64H145.113c-35.346 0-64 28.654-64 64v729Z" fill="#a8a67a"/><path d="M483.112 514c0-94.993-77.007-172-171.999-172-94.993 0-172 77.007-172 172s77.007 172 172 172c94.992 0 171.999-77.007 171.999-172Z" fill="#96c8a2"/><path d="M884.112 514c0-94.993-77.007-172-172-172s-172 77.007-172 172 77.007 172 172 172 172-77.007 172-172Z" fill="#575757"/><path d="M1172.21 727.642c-26.88 0-49.28-6.72-67.2-20.72-17.92-12.88-31.36-30.8-40.32-53.199-8.96-21.84-13.44-45.921-13.44-72.24 0-26.88 5.04-51.52 14.56-73.361 9.52-21.839 23.52-39.2 41.44-51.52 18.48-12.32 40.32-19.039 65.52-19.039 20.16 0 37.52 3.919 52.64 11.76 15.12 7.839 26.32 16.24 34.72 26.32h4.48l-.56-164.08 36.4-5.04v414.96h-31.92l-1.68-38.64-3.92.559c-11.2 14-24.64 24.64-39.76 32.481-14.56 7.84-31.92 11.759-50.96 11.759Zm8.96-33.6c19.04 0 35.28-4.479 48.72-12.88 13.44-8.959 24.64-20.719 34.16-36.399v-131.04c-9.52-14.001-21.28-24.64-35.84-31.921-14.56-6.719-30.24-10.64-46.48-10.64-21.28 0-38.64 5.041-52.64 15.121-13.44 10.079-24.08 23.519-30.8 40.32-6.72 16.799-10.08 35.28-10.08 55.439 0 19.6 3.36 37.521 10.08 54.88 6.16 16.801 16.24 30.801 29.68 41.44 14 10.641 31.36 15.68 53.2 15.68ZM1472.93 727.642c-30.24 0-54.88-7.28-75.6-20.72-20.72-13.439-35.84-31.359-46.48-53.76-10.64-22.399-16.24-46.48-16.24-72.24 0-27.44 5.6-52.079 16.8-73.919 11.2-21.281 27.44-38.641 48.16-50.961 20.72-12.319 44.8-18.479 72.8-18.479s52.64 6.719 73.36 19.039c20.16 12.88 35.84 29.681 46.48 51.52 10.64 21.28 16.24 45.92 16.24 72.8 0 27.44-5.6 52.081-16.8 74.48-11.2 21.84-26.88 39.201-47.04 52.64-20.16 12.88-44.24 19.041-72.24 19.041l.56.559Zm0-32.48c22.4 0 40.88-5.04 55.44-16.24 14.56-10.64 25.2-24.64 32.48-42 7.84-17.359 11.2-35.839 11.2-55.439 0-33.04-8.96-59.92-26.88-80.081-17.92-20.16-42-30.24-72.24-30.24-21.84 0-40.32 4.481-55.44 14.56-15.12 10.08-26.32 22.96-34.16 39.761-7.28 16.799-11.2 35.28-11.2 56 0 19.6 3.92 38.08 11.2 55.439 7.28 17.36 18.48 31.36 33.6 42.561 15.12 10.639 33.6 15.679 56 15.679ZM1651.57 721.483l-.56-277.76 32.48-2.241 1.12 52.081 4.48.559c5.6-8.4 13.44-16.799 22.96-25.76 8.96-8.399 20.16-15.68 33.04-21.839 13.44-5.601 28-8.96 45.36-8.96 29.68 0 51.52 8.96 64.96 25.76 13.44 17.359 19.6 42 19.6 73.919l.56 184.241h-36.4v-176.4c0-24.08-4.48-42-12.88-54.32s-24.08-17.921-46.48-17.921c-20.72 0-38.64 5.601-53.76 17.921-15.12 11.76-28 26.32-38.64 43.12v187.6h-35.84ZM1996.25 727.083c-25.76 0-45.92-7.281-61.04-21.281-15.12-14-22.96-33.599-22.96-58.239 0-19.6 5.04-35.281 14-47.041 9.52-11.759 20.72-20.16 34.72-25.759 14-6.16 27.44-10.081 40.88-12.88l90.72-16.241c1.12-21.28-1.68-37.52-7.84-48.16-6.16-10.639-14.56-17.919-24.64-21.839-11.2-3.36-22.96-5.041-35.84-5.041-12.32 0-26.88 1.681-43.12 5.041-15.68 3.36-34.16 9.519-54.32 18.479l-2.24-34.719c13.44-5.601 29.68-10.08 49.28-14.56 19.04-5.041 38.08-7.28 57.12-7.28 29.68 0 53.2 7.84 70.56 22.4 17.36 15.12 25.76 39.199 25.76 72.24l.56 189.28h-33.04l-1.68-41.441-4.48.561c-8.96 11.759-21.28 22.4-37.52 31.919-16.24 9.52-34.16 14.561-54.88 14.561Zm8.96-31.36c16.24 0 31.92-5.041 48.16-14.561 15.68-9.52 28.56-24.079 38.64-44.8v-67.759c-3.36 2.24-7.28 3.919-12.88 5.6-5.04 1.68-12.88 3.919-22.96 6.159-10.64 2.241-25.2 5.04-44.24 8.401-17.36 3.359-32.48 9.519-44.24 17.919-12.32 8.961-18.48 22.401-18.48 39.761 0 17.919 5.6 30.799 16.24 38.079 10.64 7.28 24.08 11.201 39.76 11.201ZM2184.69 721.483l-.56-409.92 36.4-5.04v414.96h-36.4.56ZM2384.33 727.642c-26.88 0-49.28-6.72-67.2-20.72-17.92-12.88-31.36-30.8-40.32-53.199-8.96-21.84-13.44-45.921-13.44-72.24 0-26.88 5.04-51.52 14.56-73.361 9.52-21.839 23.52-39.2 41.44-51.52 18.48-12.32 40.32-19.039 65.52-19.039 20.16 0 37.52 3.919 52.64 11.76 15.12 7.839 26.32 16.24 34.72 26.32h4.48l-.56-164.08 36.4-5.04v414.96h-31.92l-1.68-38.64-3.92.559c-11.2 14-24.64 24.64-39.76 32.481-14.56 7.84-31.92 11.759-50.96 11.759Zm8.96-33.6c19.04 0 35.28-4.479 48.72-12.88 13.44-8.959 24.64-20.719 34.16-36.399v-131.04c-9.52-14.001-21.28-24.64-35.84-31.921-14.56-6.719-30.24-10.64-46.48-10.64-21.28 0-38.64 5.041-52.64 15.121-13.44 10.079-24.08 23.519-30.8 40.32-6.72 16.799-10.08 35.28-10.08 55.439 0 19.6 3.36 37.521 10.08 54.88 6.16 16.801 16.24 30.801 29.68 41.44 14 10.641 31.36 15.68 53.2 15.68ZM2589.57 830.682c11.2-12.32 20.16-24.08 26.88-35.839 7.28-11.76 12.32-24.64 15.68-38.64 3.36-14.561 4.48-31.36 4.48-50.961l.56-261.519 35.84-1.121-.56 268.8c.56 28-3.36 51.52-11.2 70.561-7.84 19.04-17.92 34.719-30.8 47.04l-40.88 1.679Zm63.84-456.4c-8.4 0-15.12-2.24-20.72-7.279-5.6-5.041-8.4-12.881-8.4-23.521 0-10.08 2.8-17.919 8.4-22.96 5.6-5.04 12.32-7.84 21.28-7.84s16.24 2.8 21.84 7.84c5.6 5.6 7.84 12.88 7.84 22.96 0 10.64-2.24 18.48-7.84 23.521-5.6 5.039-12.88 7.279-22.4 7.279ZM2858.09 727.083c-32.48 0-59.36-6.161-80.64-19.041-21.28-12.319-36.96-29.68-47.04-52.079-10.64-21.841-15.68-47.041-15.68-75.041s5.04-52.64 15.68-73.919c10.08-21.281 24.64-38.641 43.68-50.961 19.04-12.319 41.44-18.479 67.76-18.479 34.16 0 61.04 10.64 81.2 30.799 19.6 20.721 29.68 49.841 29.68 87.92 0 13.441-.56 24.64-2.24 34.721h-198.8c1.68 31.919 11.2 57.119 29.12 75.6 17.92 18.48 44.24 28 80.08 28 13.44 0 28-1.681 42.56-5.04 15.12-3.36 29.12-8.401 42-15.68l2.24 34.159c-10.64 5.6-24.08 10.64-39.76 14-15.68 3.36-31.92 5.041-49.84 5.041Zm-15.68-258.721c-26.32 0-47.6 8.961-63.28 26.88-15.68 17.36-24.64 40.321-26.88 68.321l167.44-1.12v-6.72c0-29.12-7.28-50.96-21.84-65.52-14-14.56-32.48-21.841-55.44-21.841ZM2992.77 721.483l-.56-277.76 32.48-2.241 1.12 52.081 4.48.559c5.6-8.4 13.44-16.799 22.96-25.76 8.96-8.399 20.16-15.68 33.04-21.839 13.44-5.601 28-8.96 45.36-8.96 29.68 0 51.52 8.96 64.96 25.76 13.44 17.359 19.6 42 19.6 73.919l.56 184.241h-36.4v-176.4c0-24.08-4.48-42-12.88-54.32s-24.08-17.921-46.48-17.921c-20.72 0-38.64 5.601-53.76 17.921-15.12 11.76-28 26.32-38.64 43.12v187.6h-35.84ZM3273.61 721.483l-.56-409.92 36.4-5.04v260.399h17.36l43.68-43.12c13.44-12.88 26.88-26.32 40.32-39.76 13.44-13.44 26.88-26.88 40.88-40.319l45.92.559c-16.8 16.241-33.6 31.921-50.4 48.161-16.24 16.239-33.04 32.479-49.28 48.159l-40.32 39.2 46.48 44.801c17.36 16.24 86.8 80.639 104.16 96.88h-49.28c-14-12.88-27.44-26.321-41.44-39.201-14-12.88-28-25.76-41.44-38.64l-52.64-49.28h-14v127.121h-36.4.56ZM3533.73 721.483l-.56-277.76 36.4-1.121-.56 278.881h-35.84.56Zm17.36-347.201c-8.96 0-15.68-2.24-21.28-7.839-5.6-5.041-8.4-12.321-8.4-22.961 0-10.08 2.8-17.919 8.4-22.96 5.6-5.04 12.88-7.84 21.84-7.84 8.4 0 15.68 2.8 21.28 7.84 5.6 5.6 7.84 12.88 7.84 22.96 0 10.64-2.24 17.92-7.84 22.961-5.6 5.599-12.88 7.839-22.4 7.839h.56ZM3634.53 721.483l-.56-277.76 32.48-2.241 1.12 52.081 4.48.559c5.6-8.4 13.44-16.799 22.96-25.76 8.96-8.399 20.16-15.68 33.04-21.839 13.44-5.601 28-8.96 45.36-8.96 29.68 0 51.52 8.96 64.96 25.76 13.44 17.359 19.6 42 19.6 73.919l.56 184.241h-36.4v-176.4c0-24.08-4.48-42-12.88-54.32s-24.08-17.921-46.48-17.921c-20.72 0-38.64 5.601-53.76 17.921-15.12 11.76-28 26.32-38.64 43.12v187.6h-35.84ZM3990.41 727.083c-16.8 0-33.6-2.24-50.4-6.161-16.8-3.919-31.36-8.959-43.12-15.12l3.36-34.719c12.88 7.279 26.88 12.88 42.56 17.36 15.12 4.479 30.8 6.16 47.04 6.16 11.2 0 21.28-1.12 30.8-3.921 9.52-2.799 17.36-7.28 22.96-14.56 5.6-7.279 8.4-17.919 8.4-31.359 0-8.401-2.24-15.68-7.28-21.28-4.48-5.6-12.32-10.64-23.52-15.121-11.2-4.479-26.32-9.519-45.36-15.12-14-4.479-26.88-9.519-38.64-15.12-11.76-5.6-20.72-13.44-27.44-23.519-6.72-9.52-10.64-22.4-10.64-38.641.56-23.519 8.4-42.559 24.08-57.12 15.68-13.999 37.52-21.279 64.4-21.279 16.24 0 31.92 2.239 47.04 6.719 14.56 3.921 26.88 8.96 36.96 14.56l-3.36 35.28c-13.44-8.96-27.44-15.119-41.44-18.479-13.44-3.36-25.76-5.601-35.84-5.601-7.84.56-16.24 1.68-24.64 3.921-8.4 2.24-15.12 6.719-21.28 12.88-5.6 6.72-8.96 15.68-8.96 28 0 13.439 5.04 23.52 14 30.24 9.52 6.719 25.76 14 49.84 20.719 17.92 5.6 33.6 11.201 47.04 16.801 13.44 5.6 23.52 13.439 30.8 22.96 7.28 9.52 10.64 22.4 10.64 39.2 0 22.96-7.28 42.56-22.96 58.24-15.12 16.239-40.32 24.08-75.04 24.08Z" fill="#575757" fill-rule="nonzero"/><path fill="none" d="M0 0h4128v1028H0z"/></svg>