<?xml version="1.0" encoding="UTF-8" standalone="no"?>
<!DOCTYPE svg PUBLIC "-//W3C//DTD SVG 1.1//EN" "http://www.w3.org/Graphics/SVG/1.1/DTD/svg11.dtd">
<svg aria-labelledby="welcome-title" width="100%" height="100%" viewBox="0 0 4128 1028" version="1.1" xmlns="http://www.w3.org/2000/svg" xmlns:xlink="http://www.w3.org/1999/xlink" xml:space="preserve" xmlns:serif="http://www.serif.com/" style="fill-rule:evenodd;clip-rule:evenodd;stroke-linejoin:round;stroke-miterlimit:2;">
    <span id="site-name">Donald Jenkins</span>
    <g transform="matrix(0.5,0,0,0.5,0,0)">
        <g transform="matrix(2.00778,0,0,1,0,0)">
            <rect id="Artboard1" x="0" y="0" width="4112" height="2056" style="fill:none;"/>
            <g id="Artboard11" serif:id="Artboard1">
                <g id="Gurkha" transform="matrix(0.996124,0,0,2,11.0698,27)">
                    <path d="M70,865c0,35.346 28.654,64 64,64l732,0c35.346,0 64,-28.654 64,-64l0,-729c0,-35.346 -28.654,-64 -64,-64l-732,0c-35.346,0 -64,28.654 -64,64l0,729Z" style="fill:rgb(168,166,122);"/>
                </g>
                <g id="Eton-Blue" transform="matrix(0.996124,0,0,2,11.0698,28)">
                    <path d="M472,500c0,-94.993 -77.007,-172 -172,-172c-94.993,0 -172,77.007 -172,172c0,94.993 77.007,172 172,172c94.993,0 172,-77.007 172,-172Z" style="fill:rgb(150,200,162);"/>
                </g>
                <g id="Davys-Gray" transform="matrix(0.996124,0,0,2,11.0698,28)">
                    <path d="M873,500c0,-94.993 -77.007,-172 -172,-172c-94.993,0 -172,77.007 -172,172c0,94.993 77.007,172 172,172c94.993,0 172,-77.007 172,-172Z" style="fill:rgb(87,87,87);"/>
                </g>
                <g transform="matrix(0.498062,0,0,1,-186.987,-249.385)">
                    <g transform="matrix(1120,0,0,1120,2417.46,1692.35)">
                        <path d="M0.27,0.011c-0.048,-0 -0.088,-0.012 -0.12,-0.037c-0.032,-0.023 -0.056,-0.055 -0.072,-0.095c-0.016,-0.039 -0.024,-0.082 -0.024,-0.129c0,-0.048 0.009,-0.092 0.026,-0.131c0.017,-0.039 0.042,-0.07 0.074,-0.092c0.033,-0.022 0.072,-0.034 0.117,-0.034c0.036,0 0.067,0.007 0.094,0.021c0.027,0.014 0.047,0.029 0.062,0.047l0.008,0l-0.001,-0.293l0.065,-0.009l0,0.741l-0.057,-0l-0.003,-0.069l-0.007,0.001c-0.02,0.025 -0.044,0.044 -0.071,0.058c-0.026,0.014 -0.057,0.021 -0.091,0.021Zm0.016,-0.06c0.034,-0 0.063,-0.008 0.087,-0.023c0.024,-0.016 0.044,-0.037 0.061,-0.065l0,-0.234c-0.017,-0.025 -0.038,-0.044 -0.064,-0.057c-0.026,-0.012 -0.054,-0.019 -0.083,-0.019c-0.038,0 -0.069,0.009 -0.094,0.027c-0.024,0.018 -0.043,0.042 -0.055,0.072c-0.012,0.03 -0.018,0.063 -0.018,0.099c0,0.035 0.006,0.067 0.018,0.098c0.011,0.03 0.029,0.055 0.053,0.074c0.025,0.019 0.056,0.028 0.095,0.028Z" style="fill:rgb(87,87,87);fill-rule:nonzero;"/>
                    </g>
                    <g transform="matrix(1120,0,0,1120,2984.18,1692.35)">
                        <path d="M0.301,0.011c-0.054,-0 -0.098,-0.013 -0.135,-0.037c-0.037,-0.024 -0.064,-0.056 -0.083,-0.096c-0.019,-0.04 -0.029,-0.083 -0.029,-0.129c0,-0.049 0.01,-0.093 0.03,-0.132c0.02,-0.038 0.049,-0.069 0.086,-0.091c0.037,-0.022 0.08,-0.033 0.13,-0.033c0.05,0 0.094,0.012 0.131,0.034c0.036,0.023 0.064,0.053 0.083,0.092c0.019,0.038 0.029,0.082 0.029,0.13c0,0.049 -0.01,0.093 -0.03,0.133c-0.02,0.039 -0.048,0.07 -0.084,0.094c-0.036,0.023 -0.079,0.034 -0.129,0.034Zm0,-0.058c0.04,0 0.073,-0.009 0.099,-0.029c0.026,-0.019 0.045,-0.044 0.058,-0.075c0.014,-0.031 0.02,-0.064 0.02,-0.099c0,-0.059 -0.016,-0.107 -0.048,-0.143c-0.032,-0.036 -0.075,-0.054 -0.129,-0.054c-0.039,-0 -0.072,0.008 -0.099,0.026c-0.027,0.018 -0.047,0.041 -0.061,0.071c-0.013,0.03 -0.02,0.063 -0.02,0.1c-0,0.035 0.007,0.068 0.02,0.099c0.013,0.031 0.033,0.056 0.06,0.076c0.027,0.019 0.06,0.028 0.1,0.028Z" style="fill:rgb(87,87,87);fill-rule:nonzero;"/>
                    </g>
                    <g transform="matrix(1120,0,0,1120,3574.42,1692.35)">
                        <path d="M0.093,-0l-0.001,-0.496l0.058,-0.004l0.002,0.093l0.008,0.001c0.01,-0.015 0.024,-0.03 0.041,-0.046c0.016,-0.015 0.036,-0.028 0.059,-0.039c0.024,-0.01 0.05,-0.016 0.081,-0.016c0.053,0 0.092,0.016 0.116,0.046c0.024,0.031 0.035,0.075 0.035,0.132l0.001,0.329l-0.065,-0l0,-0.315c0,-0.043 -0.008,-0.075 -0.023,-0.097c-0.015,-0.022 -0.043,-0.032 -0.083,-0.032c-0.037,-0 -0.069,0.01 -0.096,0.032c-0.027,0.021 -0.05,0.047 -0.069,0.077l0,0.335l-0.064,-0Z" style="fill:rgb(87,87,87);fill-rule:nonzero;"/>
                    </g>
                    <g transform="matrix(1120,0,0,1120,4136.1,1692.35)">
                        <path d="M0.207,0.01c-0.046,0 -0.082,-0.013 -0.109,-0.038c-0.027,-0.025 -0.041,-0.06 -0.041,-0.104c0,-0.035 0.009,-0.063 0.025,-0.084c0.017,-0.021 0.037,-0.036 0.062,-0.046c0.025,-0.011 0.049,-0.018 0.073,-0.023l0.162,-0.029c0.002,-0.038 -0.003,-0.067 -0.014,-0.086c-0.011,-0.019 -0.026,-0.032 -0.044,-0.039c-0.02,-0.006 -0.041,-0.009 -0.064,-0.009c-0.022,-0 -0.048,0.003 -0.077,0.009c-0.028,0.006 -0.061,0.017 -0.097,0.033l-0.004,-0.062c0.024,-0.01 0.053,-0.018 0.088,-0.026c0.034,-0.009 0.068,-0.013 0.102,-0.013c0.053,0 0.095,0.014 0.126,0.04c0.031,0.027 0.046,0.07 0.046,0.129l0.001,0.338l-0.059,-0l-0.003,-0.074l-0.008,0.001c-0.016,0.021 -0.038,0.04 -0.067,0.057c-0.029,0.017 -0.061,0.026 -0.098,0.026Zm0.016,-0.056c0.029,-0 0.057,-0.009 0.086,-0.026c0.028,-0.017 0.051,-0.043 0.069,-0.08l0,-0.121c-0.006,0.004 -0.013,0.007 -0.023,0.01c-0.009,0.003 -0.023,0.007 -0.041,0.011c-0.019,0.004 -0.045,0.009 -0.079,0.015c-0.031,0.006 -0.058,0.017 -0.079,0.032c-0.022,0.016 -0.033,0.04 -0.033,0.071c0,0.032 0.01,0.055 0.029,0.068c0.019,0.013 0.043,0.02 0.071,0.02Z" style="fill:rgb(87,87,87);fill-rule:nonzero;"/>
                    </g>
                    <g transform="matrix(1120,0,0,1120,4640.66,1692.35)">
                        <path d="M0.093,-0l-0.001,-0.732l0.065,-0.009l0,0.741l-0.065,-0Z" style="fill:rgb(87,87,87);fill-rule:nonzero;"/>
                    </g>
                    <g transform="matrix(1120,0,0,1120,4841.7,1692.35)">
                        <path d="M0.27,0.011c-0.048,-0 -0.088,-0.012 -0.12,-0.037c-0.032,-0.023 -0.056,-0.055 -0.072,-0.095c-0.016,-0.039 -0.024,-0.082 -0.024,-0.129c0,-0.048 0.009,-0.092 0.026,-0.131c0.017,-0.039 0.042,-0.07 0.074,-0.092c0.033,-0.022 0.072,-0.034 0.117,-0.034c0.036,0 0.067,0.007 0.094,0.021c0.027,0.014 0.047,0.029 0.062,0.047l0.008,0l-0.001,-0.293l0.065,-0.009l0,0.741l-0.057,-0l-0.003,-0.069l-0.007,0.001c-0.02,0.025 -0.044,0.044 -0.071,0.058c-0.026,0.014 -0.057,0.021 -0.091,0.021Zm0.016,-0.06c0.034,-0 0.063,-0.008 0.087,-0.023c0.024,-0.016 0.044,-0.037 0.061,-0.065l0,-0.234c-0.017,-0.025 -0.038,-0.044 -0.064,-0.057c-0.026,-0.012 -0.054,-0.019 -0.083,-0.019c-0.038,0 -0.069,0.009 -0.094,0.027c-0.024,0.018 -0.043,0.042 -0.055,0.072c-0.012,0.03 -0.018,0.063 -0.018,0.099c0,0.035 0.006,0.067 0.018,0.098c0.011,0.03 0.029,0.055 0.053,0.074c0.025,0.019 0.056,0.028 0.095,0.028Z" style="fill:rgb(87,87,87);fill-rule:nonzero;"/>
                    </g>
                    <g transform="matrix(1120,0,0,1120,5544.5,1692.35)">
                        <path d="M0.009,0.195c0.02,-0.022 0.036,-0.043 0.048,-0.064c0.013,-0.021 0.022,-0.044 0.028,-0.069c0.006,-0.026 0.008,-0.056 0.008,-0.091l0.001,-0.467l0.064,-0.002l-0.001,0.48c0.001,0.05 -0.006,0.092 -0.02,0.126c-0.014,0.034 -0.032,0.062 -0.055,0.084l-0.073,0.003Zm0.114,-0.815c-0.015,0 -0.027,-0.004 -0.037,-0.013c-0.01,-0.009 -0.015,-0.023 -0.015,-0.042c-0,-0.018 0.005,-0.032 0.015,-0.041c0.01,-0.009 0.022,-0.014 0.038,-0.014c0.016,0 0.029,0.005 0.039,0.014c0.01,0.01 0.014,0.023 0.014,0.041c0,0.019 -0.004,0.033 -0.014,0.042c-0.01,0.009 -0.023,0.013 -0.04,0.013Z" style="fill:rgb(87,87,87);fill-rule:nonzero;"/>
                    </g>
                    <g transform="matrix(1120,0,0,1120,5744.42,1692.35)">
                        <path d="M0.31,0.01c-0.058,0 -0.106,-0.011 -0.144,-0.034c-0.038,-0.022 -0.066,-0.053 -0.084,-0.093c-0.019,-0.039 -0.028,-0.084 -0.028,-0.134c0,-0.05 0.009,-0.094 0.028,-0.132c0.018,-0.038 0.044,-0.069 0.078,-0.091c0.034,-0.022 0.074,-0.033 0.121,-0.033c0.061,0 0.109,0.019 0.145,0.055c0.035,0.037 0.053,0.089 0.053,0.157c0,0.024 -0.001,0.044 -0.004,0.062l-0.355,-0c0.003,0.057 0.02,0.102 0.052,0.135c0.032,0.033 0.079,0.05 0.143,0.05c0.024,0 0.05,-0.003 0.076,-0.009c0.027,-0.006 0.052,-0.015 0.075,-0.028l0.004,0.061c-0.019,0.01 -0.043,0.019 -0.071,0.025c-0.028,0.006 -0.057,0.009 -0.089,0.009Zm-0.028,-0.462c-0.047,0 -0.085,0.016 -0.113,0.048c-0.028,0.031 -0.044,0.072 -0.048,0.122l0.299,-0.002l-0,-0.012c-0,-0.052 -0.013,-0.091 -0.039,-0.117c-0.025,-0.026 -0.058,-0.039 -0.099,-0.039Z" style="fill:rgb(87,87,87);fill-rule:nonzero;"/>
                    </g>
                    <g transform="matrix(1120,0,0,1120,6256.82,1692.35)">
                        <path d="M0.093,-0l-0.001,-0.496l0.058,-0.004l0.002,0.093l0.008,0.001c0.01,-0.015 0.024,-0.03 0.041,-0.046c0.016,-0.015 0.036,-0.028 0.059,-0.039c0.024,-0.01 0.05,-0.016 0.081,-0.016c0.053,0 0.092,0.016 0.116,0.046c0.024,0.031 0.035,0.075 0.035,0.132l0.001,0.329l-0.065,-0l0,-0.315c0,-0.043 -0.008,-0.075 -0.023,-0.097c-0.015,-0.022 -0.043,-0.032 -0.083,-0.032c-0.037,-0 -0.069,0.01 -0.096,0.032c-0.027,0.021 -0.05,0.047 -0.069,0.077l0,0.335l-0.064,-0Z" style="fill:rgb(87,87,87);fill-rule:nonzero;"/>
                    </g>
                    <g transform="matrix(1120,0,0,1120,6818.5,1692.35)">
                        <path d="M0.093,-0l-0.001,-0.732l0.065,-0.009l0,0.465l0.031,0l0.078,-0.077c0.024,-0.023 0.048,-0.047 0.072,-0.071c0.024,-0.024 0.048,-0.048 0.073,-0.072l0.082,0.001c-0.03,0.029 -0.06,0.057 -0.09,0.086c-0.029,0.029 -0.059,0.058 -0.088,0.086l-0.072,0.07l0.083,0.08c0.031,0.029 0.155,0.144 0.186,0.173l-0.088,-0c-0.025,-0.023 -0.049,-0.047 -0.074,-0.07c-0.025,-0.023 -0.05,-0.046 -0.074,-0.069l-0.094,-0.088l-0.025,-0l-0,0.227l-0.065,-0Z" style="fill:rgb(87,87,87);fill-rule:nonzero;"/>
                    </g>
                    <g transform="matrix(1120,0,0,1120,7337.62,1692.35)">
                        <path d="M0.094,-0l-0.001,-0.496l0.065,-0.002l-0.001,0.498l-0.064,-0Zm0.031,-0.62c-0.016,0 -0.028,-0.004 -0.038,-0.014c-0.01,-0.009 -0.015,-0.022 -0.015,-0.041c0,-0.018 0.005,-0.032 0.015,-0.041c0.01,-0.009 0.023,-0.014 0.039,-0.014c0.015,0 0.028,0.005 0.038,0.014c0.01,0.01 0.014,0.023 0.014,0.041c0,0.019 -0.004,0.032 -0.014,0.041c-0.01,0.01 -0.023,0.014 -0.04,0.014Z" style="fill:rgb(87,87,87);fill-rule:nonzero;"/>
                    </g>
                    <g transform="matrix(1120,0,0,1120,7540.34,1692.35)">
                        <path d="M0.093,-0l-0.001,-0.496l0.058,-0.004l0.002,0.093l0.008,0.001c0.01,-0.015 0.024,-0.03 0.041,-0.046c0.016,-0.015 0.036,-0.028 0.059,-0.039c0.024,-0.01 0.05,-0.016 0.081,-0.016c0.053,0 0.092,0.016 0.116,0.046c0.024,0.031 0.035,0.075 0.035,0.132l0.001,0.329l-0.065,-0l0,-0.315c0,-0.043 -0.008,-0.075 -0.023,-0.097c-0.015,-0.022 -0.043,-0.032 -0.083,-0.032c-0.037,-0 -0.069,0.01 -0.096,0.032c-0.027,0.021 -0.05,0.047 -0.069,0.077l0,0.335l-0.064,-0Z" style="fill:rgb(87,87,87);fill-rule:nonzero;"/>
                    </g>
                    <g transform="matrix(1120,0,0,1120,8102.02,1692.35)">
                        <path d="M0.227,0.01c-0.03,0 -0.06,-0.004 -0.09,-0.011c-0.03,-0.007 -0.056,-0.016 -0.077,-0.027l0.006,-0.062c0.023,0.013 0.048,0.023 0.076,0.031c0.027,0.008 0.055,0.011 0.084,0.011c0.02,0 0.038,-0.002 0.055,-0.007c0.017,-0.005 0.031,-0.013 0.041,-0.026c0.01,-0.013 0.015,-0.032 0.015,-0.056c0,-0.015 -0.004,-0.028 -0.013,-0.038c-0.008,-0.01 -0.022,-0.019 -0.042,-0.027c-0.02,-0.008 -0.047,-0.017 -0.081,-0.027c-0.025,-0.008 -0.048,-0.017 -0.069,-0.027c-0.021,-0.01 -0.037,-0.024 -0.049,-0.042c-0.012,-0.017 -0.019,-0.04 -0.019,-0.069c0.001,-0.042 0.015,-0.076 0.043,-0.102c0.028,-0.025 0.067,-0.038 0.115,-0.038c0.029,0 0.057,0.004 0.084,0.012c0.026,0.007 0.048,0.016 0.066,0.026l-0.006,0.063c-0.024,-0.016 -0.049,-0.027 -0.074,-0.033c-0.024,-0.006 -0.046,-0.01 -0.064,-0.01c-0.014,0.001 -0.029,0.003 -0.044,0.007c-0.015,0.004 -0.027,0.012 -0.038,0.023c-0.01,0.012 -0.016,0.028 -0.016,0.05c0,0.024 0.009,0.042 0.025,0.054c0.017,0.012 0.046,0.025 0.089,0.037c0.032,0.01 0.06,0.02 0.084,0.03c0.024,0.01 0.042,0.024 0.055,0.041c0.013,0.017 0.019,0.04 0.019,0.07c0,0.041 -0.013,0.076 -0.041,0.104c-0.027,0.029 -0.072,0.043 -0.134,0.043Z" style="fill:rgb(87,87,87);fill-rule:nonzero;"/>
                    </g>
                </g>
            </g>
        </g>
    </g>
</svg>
