<?xml version="1.0" encoding="UTF-8"?>
<!-- Generated by Pixelmator Pro 3.3.2 -->
<svg width="4128" height="1028" viewBox="0 0 4128 1028" xmlns="https://www.w3.org/2000/svg" xmlns:xlink="https://www.w3.org/1999/xlink">

    <g id="Group">
        <g id="Logo"/>
        <g id="Gurkha">
            <path id="Path" fill="#a8a67a" fill-rule="evenodd" stroke="none" d="M 81.112785 878.5 C 81.112785 913.846008 109.766754 942.5 145.112717 942.5 L 877.111938 942.5 C 912.457886 942.5 941.111877 913.846008 941.111877 878.5 L 941.111877 149.5 C 941.111877 114.153992 912.457886 85.5 877.111938 85.5 L 145.112717 85.5 C 109.766754 85.5 81.112785 114.153992 81.112785 149.5 L 81.112785 878.5 Z"/>
        </g>
        <g id="Eton-Blue">
            <path id="path1" fill="#96c8a2" fill-rule="evenodd" stroke="none" d="M 483.112366 514 C 483.112366 419.006958 406.105438 342 311.112549 342 C 216.119644 342 139.112717 419.006958 139.112717 514 C 139.112717 608.992981 216.119644 686 311.112549 686 C 406.105438 686 483.112366 608.992981 483.112366 514 Z"/>
        </g>
        <g id="Davys-Gray">
            <path id="path2" fill="#575757" fill-rule="evenodd" stroke="none" d="M 884.111938 514 C 884.111938 419.006958 807.10498 342 712.112122 342 C 617.119202 342 540.112305 419.006958 540.112305 514 C 540.112305 608.992981 617.119202 686 712.112122 686 C 807.10498 686 884.111938 608.992981 884.111938 514 Z"/>
        </g>
        <g id="Donald-Jenkins">
            <g id="g1">
                <path id="path3" fill="#575757" stroke="none" d="M 1172.214111 727.642456 C 1145.334229 727.642456 1122.934204 720.922485 1105.014282 706.922485 C 1087.094238 694.04248 1073.654297 676.122498 1064.694214 653.722534 C 1055.734253 631.882507 1051.254272 607.80249 1051.254272 581.482544 C 1051.254272 554.602539 1056.294312 529.962524 1065.814209 508.122498 C 1075.334229 486.282532 1089.334229 468.922485 1107.254272 456.602478 C 1125.734253 444.282471 1147.574219 437.5625 1172.77417 437.5625 C 1192.934082 437.5625 1210.294067 441.482483 1225.414063 449.32251 C 1240.534058 457.162476 1251.734009 465.5625 1260.134033 475.642517 L 1264.614014 475.642517 L 1264.054077 311.5625 L 1300.453979 306.522522 L 1300.453979 721.482544 L 1268.534058 721.482544 L 1266.854004 682.842529 L 1262.934082 683.402466 C 1251.734009 697.402466 1238.294067 708.04248 1223.174072 715.882507 C 1208.614136 723.722534 1191.25415 727.642456 1172.214111 727.642456 Z M 1181.174194 694.04248 C 1200.214111 694.04248 1216.454102 689.5625 1229.894043 681.162476 C 1243.334106 672.202515 1254.534058 660.442505 1264.054077 644.762512 L 1264.054077 513.722534 C 1254.534058 499.722473 1242.774048 489.08252 1228.214111 481.80249 C 1213.654175 475.08252 1197.974121 471.162476 1181.734131 471.162476 C 1160.454224 471.162476 1143.094238 476.202515 1129.094238 486.282532 C 1115.654175 496.362488 1105.014282 509.80249 1098.294189 526.602539 C 1091.574219 543.402466 1088.214233 561.882507 1088.214233 582.04248 C 1088.214233 601.642456 1091.574219 619.5625 1098.294189 636.922485 C 1104.454224 653.722534 1114.53418 667.722534 1127.974243 678.362488 C 1141.974243 689.002502 1159.334106 694.04248 1181.174194 694.04248 Z"/>
            </g>
            <g id="g2">
                <path id="path4" fill="#575757" stroke="none" d="M 1472.933838 727.642456 C 1442.693848 727.642456 1418.053833 720.362488 1397.333862 706.922485 C 1376.613892 693.482544 1361.493896 675.5625 1350.854004 653.162476 C 1340.213989 630.762512 1334.614014 606.682495 1334.614014 580.922485 C 1334.614014 553.482483 1340.213989 528.842529 1351.41394 507.002502 C 1362.613892 485.722473 1378.853882 468.362488 1399.573853 456.04248 C 1420.293945 443.722534 1444.373901 437.5625 1472.373779 437.5625 C 1500.373779 437.5625 1525.013794 444.282471 1545.733765 456.602478 C 1565.893677 469.482483 1581.57373 486.282532 1592.213745 508.122498 C 1602.853638 529.402466 1608.453735 554.04248 1608.453735 580.922485 C 1608.453735 608.362488 1602.853638 633.002502 1591.653687 655.402466 C 1580.453735 677.242493 1564.773682 694.602539 1544.61377 708.04248 C 1524.453735 720.922485 1500.373779 727.08252 1472.373779 727.08252 Z M 1472.933838 695.162476 C 1495.333862 695.162476 1513.813843 690.122498 1528.373779 678.922485 C 1542.933716 668.282471 1553.57373 654.282471 1560.85376 636.922485 C 1568.693726 619.5625 1572.053711 601.08252 1572.053711 581.482544 C 1572.053711 548.442505 1563.09375 521.5625 1545.173706 501.402466 C 1527.253784 481.242493 1503.173828 471.162476 1472.933838 471.162476 C 1451.093872 471.162476 1432.613892 475.642517 1417.493896 485.722473 C 1402.373901 495.80249 1391.17395 508.682495 1383.333984 525.482544 C 1376.053955 542.282471 1372.133911 560.762512 1372.133911 581.482544 C 1372.133911 601.08252 1376.053955 619.5625 1383.333984 636.922485 C 1390.613892 654.282471 1401.813965 668.282471 1416.933838 679.482544 C 1432.053833 690.122498 1450.533813 695.162476 1472.933838 695.162476 Z"/>
            </g>
            <g id="g3">
                <path id="path5" fill="#575757" stroke="none" d="M 1651.573608 721.482544 L 1651.013672 443.722534 L 1683.493652 441.482483 L 1684.613647 493.5625 L 1689.093628 494.122498 C 1694.693604 485.722473 1702.533569 477.32251 1712.053589 468.362488 C 1721.01355 459.962524 1732.213501 452.682495 1745.093506 446.522522 C 1758.533569 440.922485 1773.093506 437.5625 1790.453491 437.5625 C 1820.133423 437.5625 1841.973389 446.522522 1855.413452 463.32251 C 1868.853394 480.682495 1875.013428 505.32251 1875.013428 537.242493 L 1875.573364 721.482544 L 1839.173462 721.482544 L 1839.173462 545.08252 C 1839.173462 521.002502 1834.693481 503.08252 1826.293457 490.762512 C 1817.893433 478.442505 1802.213501 472.842468 1779.813477 472.842468 C 1759.093506 472.842468 1741.173584 478.442505 1726.053589 490.762512 C 1710.933594 502.522522 1698.053589 517.08252 1687.413574 533.882507 L 1687.413574 721.482544 L 1651.573608 721.482544 Z"/>
            </g>
            <g id="g4">
                <path id="path6" fill="#575757" stroke="none" d="M 1996.253296 727.08252 C 1970.493286 727.08252 1950.333374 719.80249 1935.213379 705.80249 C 1920.093384 691.80249 1912.253418 672.202515 1912.253418 647.5625 C 1912.253418 627.962524 1917.293335 612.282471 1926.253296 600.522461 C 1935.773315 588.762512 1946.973267 580.362488 1960.973267 574.762512 C 1974.973267 568.602539 1988.41333 564.682495 2001.853271 561.882507 L 2092.573242 545.642456 C 2093.693115 524.362488 2090.893066 508.122498 2084.733154 497.482483 C 2078.573242 486.842529 2070.173096 479.5625 2060.093262 475.642517 C 2048.893311 472.282532 2037.133179 470.602478 2024.253296 470.602478 C 2011.933228 470.602478 1997.373291 472.282532 1981.133301 475.642517 C 1965.453247 479.002502 1946.973267 485.162476 1926.813354 494.122498 L 1924.573364 459.402527 C 1938.013306 453.80249 1954.253296 449.32251 1973.853271 444.842529 C 1992.893311 439.80249 2011.933228 437.5625 2030.973267 437.5625 C 2060.653076 437.5625 2084.173096 445.402527 2101.533203 459.962524 C 2118.893066 475.08252 2127.293213 499.162476 2127.293213 532.202515 L 2127.853027 721.482544 L 2094.813232 721.482544 L 2093.133057 680.04248 L 2088.653076 680.602539 C 2079.693115 692.362488 2067.373291 703.002502 2051.133301 712.522461 C 2034.893188 722.04248 2016.973267 727.08252 1996.253296 727.08252 Z M 2005.213257 695.722534 C 2021.453247 695.722534 2037.133179 690.682495 2053.373291 681.162476 C 2069.053223 671.642456 2081.933105 657.08252 2092.013184 636.362488 L 2092.013184 568.602539 C 2088.653076 570.842529 2084.733154 572.522461 2079.133057 574.202515 C 2074.093262 575.882507 2066.253174 578.122498 2056.173096 580.362488 C 2045.533203 582.602539 2030.973267 585.402466 2011.933228 588.762512 C 1994.573242 592.122498 1979.453247 598.282471 1967.693359 606.682495 C 1955.373291 615.642517 1949.213379 629.08252 1949.213379 646.442505 C 1949.213379 664.362488 1954.813354 677.242493 1965.453247 684.522461 C 1976.093262 691.80249 1989.533325 695.722534 2005.213257 695.722534 Z"/>
            </g>
            <g id="g5">
                <path id="path7" fill="#575757" stroke="none" d="M 2184.693115 721.482544 L 2184.133057 311.5625 L 2220.532959 306.522522 L 2220.532959 721.482544 L 2184.133057 721.482544 Z"/>
            </g>
            <g id="g6">
                <path id="path8" fill="#575757" stroke="none" d="M 2384.332764 727.642456 C 2357.452881 727.642456 2335.052979 720.922485 2317.132813 706.922485 C 2299.212891 694.04248 2285.772949 676.122498 2276.812988 653.722534 C 2267.853027 631.882507 2263.373047 607.80249 2263.373047 581.482544 C 2263.373047 554.602539 2268.413086 529.962524 2277.932861 508.122498 C 2287.452881 486.282532 2301.452881 468.922485 2319.372803 456.602478 C 2337.852783 444.282471 2359.692871 437.5625 2384.892822 437.5625 C 2405.052734 437.5625 2422.412842 441.482483 2437.532715 449.32251 C 2452.652832 457.162476 2463.852783 465.5625 2472.252686 475.642517 L 2476.732666 475.642517 L 2476.172852 311.5625 L 2512.572754 306.522522 L 2512.572754 721.482544 L 2480.652832 721.482544 L 2478.972656 682.842529 L 2475.052734 683.402466 C 2463.852783 697.402466 2450.412842 708.04248 2435.292725 715.882507 C 2420.73291 723.722534 2403.372803 727.642456 2384.332764 727.642456 Z M 2393.292725 694.04248 C 2412.332764 694.04248 2428.572754 689.5625 2442.012695 681.162476 C 2455.452881 672.202515 2466.652832 660.442505 2476.172852 644.762512 L 2476.172852 513.722534 C 2466.652832 499.722473 2454.892822 489.08252 2440.332764 481.80249 C 2425.772705 475.08252 2410.092773 471.162476 2393.852783 471.162476 C 2372.572754 471.162476 2355.212891 476.202515 2341.212891 486.282532 C 2327.772949 496.362488 2317.132813 509.80249 2310.412842 526.602539 C 2303.692871 543.402466 2300.333008 561.882507 2300.333008 582.04248 C 2300.333008 601.642456 2303.692871 619.5625 2310.412842 636.922485 C 2316.572998 653.722534 2326.652832 667.722534 2340.093018 678.362488 C 2354.092773 689.002502 2371.452881 694.04248 2393.292725 694.04248 Z"/>
            </g>
            <g id="g7">
                <path id="path9" fill="#575757" stroke="none" d="M 2589.57251 830.682495 C 2600.772705 818.362488 2609.732666 806.602478 2616.452637 794.842529 C 2623.732666 783.08252 2628.772705 770.202515 2632.132568 756.202515 C 2635.492676 741.642456 2636.612549 724.842529 2636.612549 705.242493 L 2637.172607 443.722534 L 2673.012451 442.602478 L 2672.452637 711.402466 C 2673.012451 739.402466 2669.092529 762.922485 2661.252441 781.962524 C 2653.412598 801.002502 2643.33252 816.682495 2630.452637 829.002502 L 2589.57251 830.682495 Z M 2653.412598 374.282471 C 2645.012451 374.282471 2638.29248 372.04248 2632.692627 367.002502 C 2627.092529 361.962463 2624.29248 354.122498 2624.29248 343.482483 C 2624.29248 333.402466 2627.092529 325.5625 2632.692627 320.522461 C 2638.29248 315.482483 2645.012451 312.682495 2653.972656 312.682495 C 2662.932617 312.682495 2670.212646 315.482483 2675.8125 320.522461 C 2681.412598 326.122498 2683.652588 333.402466 2683.652588 343.482483 C 2683.652588 354.122498 2681.412598 361.962463 2675.8125 367.002502 C 2670.212646 372.04248 2662.932617 374.282471 2653.412598 374.282471 Z"/>
            </g>
            <g id="g8">
                <path id="path10" fill="#575757" stroke="none" d="M 2858.092285 727.08252 C 2825.612305 727.08252 2798.732422 720.922485 2777.452393 708.04248 C 2756.172363 695.722534 2740.492432 678.362488 2730.412598 655.962524 C 2719.772461 634.122498 2714.732422 608.922485 2714.732422 580.922485 C 2714.732422 552.922485 2719.772461 528.282471 2730.412598 507.002502 C 2740.492432 485.722473 2755.05249 468.362488 2774.092529 456.04248 C 2793.132324 443.722534 2815.532471 437.5625 2841.852295 437.5625 C 2876.012207 437.5625 2902.892334 448.202515 2923.052246 468.362488 C 2942.652344 489.08252 2952.732178 518.202515 2952.732178 556.282471 C 2952.732178 569.722534 2952.172119 580.922485 2950.492188 591.002502 L 2751.692383 591.002502 C 2753.372559 622.922485 2762.892334 648.122498 2780.8125 666.602539 C 2798.732422 685.08252 2825.052246 694.602539 2860.892334 694.602539 C 2874.332275 694.602539 2888.892334 692.922485 2903.452393 689.5625 C 2918.572266 686.202515 2932.572266 681.162476 2945.452148 673.882507 L 2947.692139 708.04248 C 2937.052246 713.642456 2923.612305 718.682495 2907.932373 722.04248 C 2892.252197 725.402466 2876.012207 727.08252 2858.092285 727.08252 Z M 2842.412354 468.362488 C 2816.092285 468.362488 2794.8125 477.32251 2779.132324 495.242493 C 2763.452393 512.602478 2754.492432 535.5625 2752.252441 563.5625 L 2919.692383 562.442505 L 2919.692383 555.722534 C 2919.692383 526.602539 2912.412354 504.762512 2897.852295 490.202515 C 2883.852295 475.642517 2865.372314 468.362488 2842.412354 468.362488 Z"/>
            </g>
            <g id="g9">
                <path id="path11" fill="#575757" stroke="none" d="M 2992.772217 721.482544 L 2992.212158 443.722534 L 3024.692139 441.482483 L 3025.812256 493.5625 L 3030.292236 494.122498 C 3035.89209 485.722473 3043.732178 477.32251 3053.252197 468.362488 C 3062.212158 459.962524 3073.412109 452.682495 3086.291992 446.522522 C 3099.732178 440.922485 3114.291992 437.5625 3131.6521 437.5625 C 3161.332031 437.5625 3183.171875 446.522522 3196.612061 463.32251 C 3210.052002 480.682495 3216.211914 505.32251 3216.211914 537.242493 L 3216.771973 721.482544 L 3180.37207 721.482544 L 3180.37207 545.08252 C 3180.37207 521.002502 3175.89209 503.08252 3167.491943 490.762512 C 3159.092041 478.442505 3143.412109 472.842468 3121.011963 472.842468 C 3100.291992 472.842468 3082.37207 478.442505 3067.252197 490.762512 C 3052.13208 502.522522 3039.252197 517.08252 3028.612061 533.882507 L 3028.612061 721.482544 L 2992.772217 721.482544 Z"/>
            </g>
            <g id="g10">
                <path id="path12" fill="#575757" stroke="none" d="M 3273.611816 721.482544 L 3273.052002 311.5625 L 3309.451904 306.522522 L 3309.451904 566.922485 L 3326.811768 566.922485 L 3370.491699 523.80249 C 3383.931885 510.922485 3397.371826 497.482483 3410.811768 484.04248 C 3424.251709 470.602478 3437.69165 457.162476 3451.69165 443.722534 L 3497.611572 444.282471 C 3480.811768 460.522522 3464.011719 476.202515 3447.21167 492.442505 C 3430.97168 508.682495 3414.171631 524.922485 3397.931641 540.602478 L 3357.611816 579.80249 L 3404.091797 624.602539 C 3421.45166 640.842529 3490.891602 705.242493 3508.251709 721.482544 L 3458.97168 721.482544 C 3444.97168 708.602539 3431.531738 695.162476 3417.531738 682.282471 C 3403.531738 669.402466 3389.531738 656.522461 3376.091797 643.642456 L 3323.451904 594.362488 L 3309.451904 594.362488 L 3309.451904 721.482544 L 3273.052002 721.482544 Z"/>
            </g>
            <g id="g11">
                <path id="path13" fill="#575757" stroke="none" d="M 3533.731689 721.482544 L 3533.171631 443.722534 L 3569.571533 442.602478 L 3569.011475 721.482544 L 3533.171631 721.482544 Z M 3551.091553 374.282471 C 3542.131592 374.282471 3535.411621 372.04248 3529.811523 366.442505 C 3524.21167 361.402466 3521.411621 354.122498 3521.411621 343.482483 C 3521.411621 333.402466 3524.21167 325.5625 3529.811523 320.522461 C 3535.411621 315.482483 3542.69165 312.682495 3551.651611 312.682495 C 3560.051514 312.682495 3567.331543 315.482483 3572.931641 320.522461 C 3578.531494 326.122498 3580.771484 333.402466 3580.771484 343.482483 C 3580.771484 354.122498 3578.531494 361.402466 3572.931641 366.442505 C 3567.331543 372.04248 3560.051514 374.282471 3550.531494 374.282471 Z"/>
            </g>
            <g id="g12">
                <path id="path14" fill="#575757" stroke="none" d="M 3634.531494 721.482544 L 3633.971436 443.722534 L 3666.451416 441.482483 L 3667.571533 493.5625 L 3672.051514 494.122498 C 3677.651367 485.722473 3685.491455 477.32251 3695.011475 468.362488 C 3703.971436 459.962524 3715.171387 452.682495 3728.051514 446.522522 C 3741.491455 440.922485 3756.05127 437.5625 3773.411377 437.5625 C 3803.091309 437.5625 3824.931396 446.522522 3838.371338 463.32251 C 3851.811279 480.682495 3857.971191 505.32251 3857.971191 537.242493 L 3858.53125 721.482544 L 3822.131348 721.482544 L 3822.131348 545.08252 C 3822.131348 521.002502 3817.651367 503.08252 3809.251221 490.762512 C 3800.851318 478.442505 3785.171387 472.842468 3762.77124 472.842468 C 3742.05127 472.842468 3724.131348 478.442505 3709.011475 490.762512 C 3693.891357 502.522522 3681.011475 517.08252 3670.371582 533.882507 L 3670.371582 721.482544 L 3634.531494 721.482544 Z"/>
            </g>
            <g id="g13">
                <path id="path15" fill="#575757" stroke="none" d="M 3990.411133 727.08252 C 3973.611084 727.08252 3956.811035 724.842529 3940.01123 720.922485 C 3923.211182 717.002502 3908.651123 711.962524 3896.891113 705.80249 L 3900.251221 671.08252 C 3913.131104 678.362488 3927.131104 683.962524 3942.811279 688.442505 C 3957.931152 692.922485 3973.611084 694.602539 3989.851074 694.602539 C 4001.051025 694.602539 4011.131104 693.482544 4020.651123 690.682495 C 4030.171143 687.882507 4038.010986 683.402466 4043.611084 676.122498 C 4049.210938 668.842529 4052.010986 658.202515 4052.010986 644.762512 C 4052.010986 636.362488 4049.770996 629.08252 4044.730957 623.482544 C 4040.250977 617.882507 4032.411133 612.842529 4021.211182 608.362488 C 4010.010986 603.882507 3994.891113 598.842529 3975.851074 593.242493 C 3961.851074 588.762512 3948.971191 583.722534 3937.211182 578.122498 C 3925.451172 572.522461 3916.491211 564.682495 3909.77124 554.602539 C 3903.05127 545.08252 3899.131104 532.202515 3899.131104 515.962463 C 3899.691162 492.442505 3907.53125 473.402527 3923.211182 458.842468 C 3938.891113 444.842529 3960.731201 437.5625 3987.611084 437.5625 C 4003.851074 437.5625 4019.531006 439.80249 4034.651123 444.282471 C 4049.210938 448.202515 4061.531006 453.242493 4071.611084 458.842468 L 4068.250977 494.122498 C 4054.811035 485.162476 4040.811035 479.002502 4026.811035 475.642517 C 4013.371094 472.282532 4001.051025 470.04248 3990.971191 470.04248 C 3983.131104 470.602478 3974.731201 471.722473 3966.331055 473.962524 C 3957.931152 476.202515 3951.211182 480.682495 3945.05127 486.842529 C 3939.451172 493.5625 3936.091064 502.522522 3936.091064 514.842529 C 3936.091064 528.282471 3941.131104 538.362549 3950.091064 545.08252 C 3959.611084 551.80249 3975.851074 559.08252 3999.931152 565.80249 C 4017.851074 571.402466 4033.531006 577.002502 4046.970947 582.602539 C 4060.411133 588.202515 4070.490967 596.04248 4077.770996 605.5625 C 4085.051025 615.08252 4088.411133 627.962524 4088.411133 644.762512 C 4088.411133 667.722534 4081.131104 687.32251 4065.450928 703.002502 C 4050.331055 719.242493 4025.131104 727.08252 3990.411133 727.08252 Z"/>
            </g>
        </g>
        <path id="path16" fill="none" stroke="none" d="M 0 0 L 4127.995605 0 L 4127.995605 1028 L 0 1028 Z"/>
    </g>
</svg>
