<svg xmlns="http://www.w3.org/2000/svg" width="3084" height="3084"><svg width="3084" height="3084" viewBox="0 0 3084 3084" xmlns="http://www.w3.org/2000/svg" xmlns:xlink="http://www.w3.org/1999/xlink"><g id="SvgjsG1003"><path id="SvgjsPath1002" fill="#96c8a2" fill-rule="evenodd" stroke="none" d="M1453.648 1542c0-292.958-237.49-530.448-530.448-530.448-292.958 0-530.448 237.49-530.448 530.448 0 292.958 237.49 530.448 530.448 530.448 292.958 0 530.448-237.49 530.448-530.448Z"/><path id="SvgjsPath1001" fill="#575757" fill-rule="evenodd" stroke="none" d="M2690.332 1542c0-292.958-237.49-530.448-530.448-530.448-292.958 0-530.448 237.49-530.448 530.448 0 292.958 237.49 530.448 530.448 530.448 292.958 0 530.448-237.49 530.448-530.448Z"/><path id="SvgjsPath1000" fill="none" stroke="#a8a67a" stroke-width="200" d="M192 2662c0 106.039 85.961 192 192 192h2316c106.039 0 192-85.961 192-192V423c0-106.039-85.961-192-192-192H384c-106.039 0-192 85.961-192 192Z"/></g></svg><style>@media (prefers-color-scheme:light){:root{filter:none}}@media (prefers-color-scheme:dark){:root{filter:contrast(.8333333333333334) brightness(1.7)}}</style></svg>