<?xml version="1.0" encoding="UTF-8"?>
<!-- Generated by Pixelmator Pro 3.3.2 -->
<svg width="1000" height="1000" viewBox="0 0 1000 1000" xmlns="http://www.w3.org/2000/svg" xmlns:xlink="http://www.w3.org/1999/xlink">
+   <style>
+     @media (prefers-color-scheme: dark) {
+     .a { fill: #f0f0f0 }
      .b { fill: #fff7d1 }
      .c { fill: #96c8a2 }
+     }
+   </style>
    <path id="Gurkha" class="c" fill="#a8a67a" fill-rule="evenodd" stroke="none" d="M 70 865 C 70 900.346191 98.653778 929 134 929 L 866 929 C 901.346252 929 930 900.346191 930 865 L 930 136 C 930 100.653748 901.346252 72 866 72 L 134 72 C 98.653778 72 70 100.653748 70 136 Z"/>
    <path id="Eton-Blue" class="b" fill="#96c8a2" fill-rule="evenodd" stroke="none" d="M 472 500 C 472 405.007019 394.992981 328 300 328 C 205.007019 328 128 405.007019 128 500 C 128 594.992981 205.007019 672 300 672 C 394.992981 672 472 594.992981 472 500 Z"/>
    <path id="Davys-Gray" class="a" fill="#575757" fill-rule="evenodd" stroke="none" d="M 873 500 C 873 405.007019 795.992981 328 701 328 C 606.007019 328 529 405.007019 529 500 C 529 594.992981 606.007019 672 701 672 C 795.992981 672 873 594.992981 873 500 Z"/>
</svg>
