<svg width="1000" height="1000" viewBox="0 0 1000 1000" xmlns="http://www.w3.org/2000/svg">+<style></style><path id="Gurkha" class="c" fill="#a8a67a" fill-rule="evenodd" stroke="none" d="M70 865c0 35.346 28.654 64 64 64h732c35.346 0 64-28.654 64-64V136c0-35.346-28.654-64-64-64H134c-35.346 0-64 28.654-64 64Z"/><path id="Eton-Blue" class="b" fill="#96c8a2" fill-rule="evenodd" stroke="none" d="M472 500c0-94.993-77.007-172-172-172s-172 77.007-172 172 77.007 172 172 172 172-77.007 172-172Z"/><path id="Davys-Gray" class="a" fill="#575757" fill-rule="evenodd" stroke="none" d="M873 500c0-94.993-77.007-172-172-172s-172 77.007-172 172 77.007 172 172 172 172-77.007 172-172Z"/></svg>